<svg width="198" height="196" viewBox="0 0 198 196" fill="none" xmlns="http://www.w3.org/2000/svg">
<g filter="url(#filter0_d_2572_621)">
<path d="M103.82 91.783C103.82 124.321 132.743 147.218 100.205 186.385C101.252 159.873 88.161 152.547 85.136 139.385M103.82 91.783C86.06 117.154 82.936 129.813 85.136 139.385M103.82 91.783C103.82 85.556 107.797 70.451 123.705 59.846M103.82 91.783C106.833 87.565 116.715 80.816 132.141 87.565C127.923 85.958 119.246 81.418 118.282 76.115C124.509 79.53 139.974 85.154 152.026 80.333C146.603 80.132 134.792 78.526 130.936 73.705C138.167 75.666 155.521 78.17 167.09 72.5C160.261 72.796 145.156 71.793 139.372 65.412C149.214 67.172 171.428 68.764 181.551 61.051C178.137 61.051 169.621 60.328 162.872 57.436C170.705 56.432 187.697 52.495 193 44.782C190.389 46.389 179.744 49 158.051 46.59C168.897 44.179 191.072 35.021 193 17.667C188.179 22.889 174.441 33.936 158.051 36.346C165.483 34.538 180.226 25.138 179.744 2C159.256 40.564 130.333 30.923 107.436 64.064C107.436 53.218 94.421 33.454 107.436 29.115C106.833 28.513 105.267 27.428 103.821 27.91C86.346 23.692 100.205 48.397 92.974 65.412M85.136 139.385C77.308 110.462 102.615 72.5 66.462 87.565C70.88 85.355 80.079 79.972 81.526 76.115C77.509 78.325 64.654 82.262 45.372 80.333C51.598 79.731 65.136 77.079 69.474 71.295C62.244 74.308 44.408 78.526 30.91 71.295C35.53 71.295 45.613 70.572 48.987 67.679C41.355 67.88 24.162 66.595 16.449 59.846C20.466 60.248 29.223 60.328 32.115 57.436C27.094 56.432 15.123 52.495 7.41 44.782C15.846 46.389 34.405 49 41.154 46.59C31.312 44.782 10.303 36.467 5 17.667C12.03 23.291 28.379 34.9 37.538 36.346C30.308 31.325 16.569 17.546 19.462 2.603C37.41 35.695 75.197 40.594 92.974 65.412M92.974 65.412C94.295 67.256 95.506 69.211 96.59 71.295L92.974 65.412Z" stroke="#EFEFEF" shape-rendering="crispEdges"/>
</g>
<defs>
<filter id="filter0_d_2572_621" x="0.0976562" y="0.0683594" width="197.566" height="195.771" filterUnits="userSpaceOnUse" color-interpolation-filters="sRGB">
<feFlood flood-opacity="0" result="BackgroundImageFix"/>
<feColorMatrix in="SourceAlpha" type="matrix" values="0 0 0 0 0 0 0 0 0 0 0 0 0 0 0 0 0 0 127 0" result="hardAlpha"/>
<feOffset dy="4"/>
<feGaussianBlur stdDeviation="2"/>
<feComposite in2="hardAlpha" operator="out"/>
<feColorMatrix type="matrix" values="0 0 0 0 0 0 0 0 0 0 0 0 0 0 0 0 0 0 0.25 0"/>
<feBlend mode="normal" in2="BackgroundImageFix" result="effect1_dropShadow_2572_621"/>
<feBlend mode="normal" in="SourceGraphic" in2="effect1_dropShadow_2572_621" result="shape"/>
</filter>
</defs>
</svg>
